<?xml version="1.0" standalone="no"?>
<!DOCTYPE svg PUBLIC "-//W3C//DTD SVG 20010904//EN"
 "http://www.w3.org/TR/2001/REC-SVG-20010904/DTD/svg10.dtd">
<svg version="1.0" xmlns="http://www.w3.org/2000/svg"
 width="761.000000pt" height="566.000000pt" viewBox="0 0 761.000000 566.000000"
 preserveAspectRatio="xMidYMid meet">

<g transform="translate(0.000000,566.000000) scale(0.100000,-0.100000)"
fill="#000000" stroke="none">
<path d="M2531 5559 c-204 -143 -360 -343 -432 -554 -20 -60 -24 -89 -24 -200
0 -108 4 -141 22 -197 l23 -66 -25 -54 c-36 -77 -34 -160 6 -285 29 -89 31
-106 26 -188 -6 -88 -40 -243 -112 -505 -43 -156 -75 -350 -75 -455 0 -44 -4
-86 -9 -94 -9 -13 -128 -36 -1091 -206 -234 -41 -437 -80 -451 -86 -64 -26
-116 -117 -146 -259 -15 -70 -18 -132 -18 -353 0 -229 -2 -268 -15 -271 -8 -3
-29 -7 -46 -11 -88 -17 -123 -136 -104 -353 18 -207 79 -437 141 -534 36 -56
95 -88 161 -88 l45 0 57 -167 c101 -297 227 -517 327 -568 41 -22 120 -18 266
10 278 55 909 168 1109 200 115 18 223 39 240 48 86 45 139 172 159 383 7 78
9 83 45 107 50 34 81 24 177 -61 48 -42 125 -106 171 -140 47 -36 82 -70 82
-80 0 -23 -24 -170 -54 -332 -13 -74 -22 -137 -19 -140 3 -3 76 68 163 157
181 187 166 180 305 133 172 -58 331 -78 485 -60 100 11 138 21 287 76 50 19
98 31 106 28 8 -3 47 -44 88 -92 102 -120 232 -249 236 -235 2 6 -12 105 -32
219 -20 114 -35 221 -33 238 2 24 17 41 73 84 39 29 116 94 173 144 l103 90
43 -16 c66 -25 75 -41 87 -147 25 -225 84 -341 187 -368 20 -5 73 -15 117 -21
102 -15 852 -149 1095 -196 102 -20 221 -38 265 -41 76 -5 82 -4 125 25 105
71 210 263 310 567 23 72 44 136 46 143 2 7 22 12 54 12 97 0 142 36 195 155
87 198 138 614 90 733 -21 51 -67 92 -103 92 -15 0 -32 4 -37 8 -6 4 -10 104
-10 267 0 210 -4 277 -18 350 -23 112 -60 197 -103 234 -39 34 -38 34 -479
111 -484 85 -1083 195 -1089 201 -3 2 -12 75 -21 161 -19 190 -35 283 -82 453
-78 288 -95 363 -100 451 -5 85 -3 98 26 179 41 114 43 213 6 294 l-26 54 23
66 c19 56 23 86 23 196 -1 114 -4 140 -28 210 -55 165 -178 337 -334 470 -75
64 -160 125 -173 125 -11 0 -88 -109 -146 -205 -60 -98 -103 -197 -135 -310
-13 -44 -24 -81 -25 -83 0 -1 -39 6 -85 17 -177 41 -298 37 -511 -19 -241 -62
-351 -62 -598 0 -218 55 -379 60 -526 15 -64 -19 -74 -19 -74 5 0 51 -91 273
-156 383 -42 71 -135 197 -144 197 -4 0 -39 -23 -79 -51z m0 -251 c27 -50 18
-382 -10 -411 -5 -5 -11 31 -14 80 -6 100 -25 199 -36 186 -4 -4 -17 -44 -29
-88 -38 -148 -80 -235 -113 -235 -5 0 -18 14 -28 31 l-19 31 -7 -55 c-19 -149
33 -202 169 -174 l39 8 -6 -43 c-5 -32 7 -10 44 82 63 157 116 330 133 435
l13 80 21 -47 c56 -126 66 -175 64 -325 -1 -79 1 -143 4 -143 4 0 38 23 77 51
131 96 229 123 412 116 95 -4 135 -10 194 -31 78 -27 213 -56 264 -56 24 0 43
-11 79 -47 l48 -47 48 46 c39 39 55 48 97 53 68 9 158 32 230 58 51 19 81 22
200 22 203 0 244 -15 457 -165 19 -13 20 -13 14 8 -4 11 -8 79 -8 149 -1 135
10 190 64 309 l22 49 12 -72 c19 -110 60 -251 115 -396 66 -174 70 -182 63
-129 -3 23 -3 42 0 42 3 0 27 -5 54 -11 117 -25 177 63 142 206 l-7 30 -11
-28 c-15 -36 -39 -45 -62 -21 -24 26 -64 129 -91 239 l-23 90 -12 -42 c-7 -23
-18 -86 -25 -140 l-13 -98 -12 80 c-24 157 -12 329 24 342 11 5 32 -12 69 -53
212 -235 266 -474 157 -701 -19 -39 -34 -74 -34 -76 0 -3 15 -15 34 -26 18
-12 39 -35 46 -51 17 -42 7 -133 -21 -195 -16 -37 -23 -75 -26 -145 -5 -111 7
-178 90 -505 76 -295 88 -371 94 -565 4 -130 2 -184 -12 -255 -16 -89 -68
-239 -85 -250 -5 -3 -2 13 7 37 26 71 29 282 5 398 -11 52 -27 111 -35 130
l-15 35 -1 -31 c-2 -89 -76 -240 -152 -311 -36 -34 -138 -103 -152 -103 -4 0
4 15 18 34 39 51 65 127 72 214 l6 77 -82 -78 c-102 -97 -161 -127 -251 -127
-77 0 -129 21 -191 77 -44 40 -119 129 -119 142 0 4 21 4 48 0 101 -16 252 30
360 109 26 19 38 31 27 27 -120 -45 -218 -61 -287 -49 l-43 7 75 17 c161 36
251 104 280 212 9 32 15 38 38 38 15 0 45 9 67 19 154 69 153 301 0 382 -25
13 -45 31 -45 39 0 41 -101 170 -132 170 -3 0 6 -22 20 -50 18 -37 25 -67 26
-120 1 -68 2 -70 47 -117 55 -57 61 -71 48 -116 l-9 -34 -143 -6 c-153 -5
-210 -18 -311 -69 -61 -30 -156 -99 -190 -137 -37 -41 -106 -18 -156 51 -17
22 -30 35 -30 27 0 -30 21 -88 45 -123 l24 -36 -32 -8 c-19 -6 -37 -5 -44 1
-15 11 -33 71 -33 110 l0 28 -26 -20 c-35 -28 -97 -28 -122 -1 -32 35 -71 114
-88 180 -13 51 -14 71 -4 108 16 63 61 124 127 172 64 46 63 51 -5 16 -72 -37
-128 -91 -158 -151 -24 -50 -26 -63 -22 -143 6 -97 27 -164 83 -256 19 -32 35
-60 35 -62 0 -10 -44 -3 -70 11 -42 22 -76 71 -96 140 l-17 60 -12 -51 c-13
-59 -46 -116 -78 -137 -25 -16 -98 -39 -105 -32 -2 2 5 16 16 32 102 144 138
334 84 440 -34 66 -117 138 -190 163 l-27 10 25 -18 c56 -38 120 -107 141
-148 39 -82 11 -219 -67 -321 -21 -27 -32 -33 -63 -33 -24 0 -48 8 -65 21
l-26 20 0 -29 c0 -34 -18 -92 -34 -109 -9 -10 -21 -10 -49 -2 l-37 10 24 32
c23 30 52 114 43 123 -2 3 -16 -11 -31 -31 -30 -38 -73 -65 -107 -65 -11 0
-44 21 -73 47 -146 132 -287 183 -505 183 -121 0 -121 0 -121 69 0 31 8 44 50
86 l49 48 0 68 c0 53 5 79 25 119 l25 50 -30 -15 c-36 -19 -85 -85 -101 -137
-6 -21 -14 -38 -18 -38 -4 0 -27 -14 -53 -31 -53 -35 -97 -112 -97 -169 0 -64
27 -136 65 -169 32 -28 89 -51 127 -51 10 0 21 -14 28 -37 37 -116 130 -184
300 -217 l65 -13 -49 -8 c-57 -9 -164 7 -238 35 -29 11 -53 18 -55 16 -2 -2
22 -21 54 -42 108 -72 237 -110 329 -97 24 3 44 2 44 -2 0 -14 -71 -103 -107
-136 -138 -121 -298 -104 -453 49 -39 37 -71 63 -71 57 -10 -76 17 -189 61
-258 l31 -49 -51 28 c-69 38 -160 130 -198 202 -18 33 -40 95 -50 138 l-18 79
-22 -80 c-34 -125 -45 -221 -39 -325 4 -52 9 -106 12 -120 11 -51 -33 58 -51
125 -15 57 -19 105 -19 260 1 228 9 278 107 665 60 237 71 291 75 390 5 110 4
119 -26 205 -17 49 -31 109 -31 133 0 41 22 102 38 102 4 0 18 9 31 19 l23 18
-25 49 c-124 245 -77 476 148 727 28 31 55 56 62 56 7 1 18 -9 24 -21z m357
-1963 c35 -8 98 -31 140 -51 l77 -35 -33 -30 c-37 -33 -50 -34 -146 -14 -103
22 -166 64 -189 128 -5 15 0 17 41 17 26 0 75 -7 110 -15z m2002 8 c0 -23 -44
-75 -83 -97 -42 -25 -154 -55 -204 -56 -13 0 -37 13 -55 29 l-33 30 77 36 c43
19 103 42 135 49 63 16 163 21 163 9z m-1296 -255 c60 -19 94 -23 221 -23 128
0 160 3 222 23 39 12 79 19 89 15 14 -5 9 -9 -21 -20 -42 -15 -117 -68 -135
-97 -10 -17 -8 -16 18 3 70 49 154 63 220 36 58 -25 78 -50 146 -189 70 -144
136 -249 213 -342 l51 -61 -52 -17 c-29 -10 -62 -25 -74 -34 -21 -16 -19 -17
46 -19 106 -2 174 -33 253 -112 87 -88 113 -152 107 -266 -3 -57 -11 -93 -27
-123 l-22 -43 -37 32 c-74 65 -207 110 -322 108 -41 0 -43 -1 -20 -11 163 -70
215 -109 256 -190 27 -54 30 -100 10 -175 -18 -69 -48 -129 -86 -176 -43 -51
-52 -47 -23 11 32 65 47 155 39 226 l-8 57 -21 -43 c-38 -75 -110 -108 -232
-107 l-70 0 40 19 c22 10 38 19 35 19 -3 1 -44 6 -90 12 -199 24 -364 72 -425
121 -47 40 -45 62 8 86 23 10 65 37 92 59 28 22 75 51 105 65 30 13 70 38 89
53 42 36 81 117 81 169 l0 39 -64 -62 c-64 -61 -131 -100 -173 -101 -23 0 -77
41 -94 71 -9 18 -8 18 23 -1 87 -53 228 11 309 138 23 37 27 51 22 90 -18 158
-150 271 -357 307 -49 8 -105 15 -126 15 -72 0 -215 -31 -277 -60 -73 -33
-147 -99 -175 -153 -24 -49 -40 -141 -29 -171 16 -41 111 -134 163 -160 63
-31 121 -33 166 -6 31 19 32 19 23 1 -17 -30 -71 -71 -94 -71 -42 1 -109 40
-173 101 l-64 62 0 -39 c0 -52 39 -133 81 -169 19 -15 58 -39 88 -53 29 -13
82 -46 116 -72 35 -26 79 -53 99 -60 42 -14 45 -28 12 -63 -50 -54 -163 -93
-352 -122 -60 -9 -125 -19 -144 -22 l-35 -5 40 -19 40 -18 -75 0 c-130 -1
-205 34 -240 112 l-18 40 -7 -56 c-9 -70 7 -167 38 -229 25 -50 15 -52 -25 -3
-36 42 -66 105 -83 172 -22 83 -19 121 14 179 47 82 89 112 251 182 22 9 18
11 -30 11 -110 1 -240 -44 -315 -110 l-35 -31 -22 48 c-15 32 -24 75 -26 124
-5 108 20 171 106 260 79 81 147 111 254 113 65 2 67 3 46 19 -12 9 -46 24
-74 34 l-52 18 58 70 c78 95 130 178 201 321 67 134 93 165 157 196 55 27 122
22 191 -14 27 -14 48 -20 45 -14 -8 21 -103 85 -136 92 -22 5 -27 9 -17 16 18
11 11 12 93 -13z m920 -180 c21 -57 59 -145 85 -195 27 -51 47 -93 45 -93 -19
0 -234 388 -234 422 0 4 15 -1 33 -12 28 -17 39 -35 71 -122z m-1321 95 c-37
-90 -116 -236 -172 -321 -62 -92 -106 -141 -56 -62 45 72 113 218 142 306 22
69 31 84 57 97 45 23 47 21 29 -20z m-1457 -270 c-32 -100 -45 -451 -27 -675
50 -599 221 -1268 402 -1569 30 -50 43 -82 36 -84 -7 -2 -79 -15 -160 -29 -99
-18 -153 -23 -165 -17 -10 5 -32 30 -50 54 l-32 46 52 10 c29 6 96 18 148 27
52 9 96 18 98 19 1 1 -14 38 -34 81 -104 227 -195 510 -248 774 -24 117 -38
165 -47 165 -8 0 -76 -11 -152 -24 -75 -13 -139 -22 -141 -20 -7 7 -56 371
-66 494 -20 242 -10 499 25 621 24 85 33 90 185 118 171 30 183 31 176 9z
m4304 -8 c114 -20 149 -30 162 -46 85 -100 89 -585 11 -1081 -14 -87 -20 -108
-33 -108 -9 0 -77 11 -150 25 -74 13 -136 22 -139 20 -2 -3 -19 -78 -37 -168
-53 -261 -144 -545 -248 -771 -20 -43 -35 -80 -34 -81 2 -1 46 -10 98 -19 52
-9 119 -21 148 -27 l52 -10 -32 -46 c-18 -24 -40 -49 -50 -54 -12 -6 -66 -1
-165 17 -81 14 -153 27 -160 29 -8 3 4 30 32 76 181 293 356 974 406 1577 13
159 7 530 -10 602 -6 25 -13 55 -16 68 -7 28 -12 28 165 -3z m-4814 -82 c-26
-94 -31 -156 -31 -413 0 -298 11 -417 66 -740 77 -453 232 -941 358 -1124 23
-33 28 -48 19 -51 -7 -2 -76 -15 -153 -29 -96 -17 -145 -21 -158 -15 -24 14
-79 91 -70 99 6 6 243 50 265 50 4 0 -15 46 -42 102 -99 211 -195 518 -247
785 -22 114 -31 142 -43 139 -48 -13 -262 -47 -266 -43 -9 8 -41 233 -59 399
-17 171 -20 501 -4 614 11 84 44 183 62 190 19 7 260 52 285 53 18 1 22 -3 18
-16z m5318 -9 c77 -14 144 -28 148 -30 15 -9 47 -115 57 -188 14 -100 14 -414
0 -569 -13 -143 -54 -435 -62 -443 -5 -5 -214 28 -267 42 -12 3 -21 -26 -44
-144 -52 -267 -147 -569 -246 -780 -27 -56 -46 -102 -42 -102 22 0 259 -44
265 -50 9 -8 -46 -85 -70 -99 -13 -6 -62 -2 -158 15 -77 14 -146 27 -153 29
-9 3 -4 18 19 51 126 183 282 673 358 1124 55 324 66 442 66 740 0 257 -5 319
-31 413 -7 22 -8 22 160 -9z m-5804 -62 c0 -4 -7 -39 -15 -77 -22 -101 -30
-417 -16 -605 17 -209 55 -487 92 -671 75 -370 206 -756 314 -924 20 -32 33
-61 28 -65 -9 -7 -239 -50 -271 -50 -12 0 -38 20 -61 46 -39 45 -49 64 -34 64
11 0 248 42 250 44 2 1 -22 57 -52 123 -101 226 -208 578 -246 807 -8 45 -19
80 -26 83 -8 3 -68 -5 -134 -18 -97 -18 -122 -20 -129 -10 -20 33 -64 415 -75
656 -11 229 24 514 68 542 10 7 260 60 295 62 6 1 12 -2 12 -7z m6288 -21 c86
-17 148 -34 153 -42 13 -21 37 -106 50 -184 15 -86 15 -419 0 -570 -16 -164
-52 -421 -61 -435 -6 -10 -37 -7 -139 12 l-131 25 -5 -21 c-2 -12 -13 -68 -25
-126 -53 -262 -138 -535 -236 -754 -29 -66 -53 -121 -51 -122 2 -2 239 -44
250 -44 15 0 5 -19 -34 -64 -23 -26 -49 -46 -61 -46 -32 0 -262 43 -271 50 -5
4 9 34 29 66 98 153 216 487 293 829 74 331 111 631 118 960 5 231 -2 324 -33
468 -4 15 -2 27 2 27 5 -1 74 -13 152 -29z m-3048 -58 c66 -16 171 -63 203
-91 9 -8 20 -13 23 -10 6 7 -21 64 -45 93 -16 19 -15 19 9 4 37 -24 82 -102
88 -154 l5 -46 -74 56 c-110 82 -155 94 -380 94 -223 0 -266 -10 -378 -95
l-74 -55 5 46 c6 52 51 130 88 154 24 15 25 15 9 -4 -22 -26 -52 -86 -46 -91
3 -3 24 8 48 24 133 89 336 118 519 75z m-2081 -232 c21 -57 101 -201 111
-201 3 0 14 13 23 29 23 40 53 48 85 24 38 -29 37 -38 -8 -56 -59 -23 -73 -63
-73 -202 1 -169 47 -395 104 -507 18 -35 18 -37 2 -31 -62 22 -154 118 -201
209 -31 60 -81 462 -87 709 -5 169 -5 177 9 129 8 -27 24 -74 35 -103z m3858
-54 c-8 -174 -27 -353 -58 -542 -23 -142 -40 -181 -114 -262 -38 -43 -125
-104 -125 -88 0 3 9 23 20 45 50 99 100 345 100 496 0 127 -28 194 -86 208
-13 4 -24 10 -24 15 0 13 50 51 67 51 16 0 57 -38 65 -61 5 -11 9 -10 22 6 28
36 93 168 112 228 10 31 20 57 22 57 3 0 2 -69 -1 -153z m-3207 -209 c0 -30 0
-31 -20 -13 -25 22 -25 32 -2 38 9 3 18 5 20 6 1 0 2 -13 2 -31z m2560 14 c0
-5 -9 -17 -20 -27 -20 -18 -20 -17 -20 8 0 20 5 27 20 27 11 0 20 -4 20 -8z
m-2765 -32 c-15 -16 -21 -18 -33 -8 -13 11 -11 14 9 19 40 11 43 10 24 -11z
m2975 0 c0 -14 -27 -19 -39 -7 -18 18 -13 25 14 19 14 -2 25 -8 25 -12z
m-3082 -63 l22 -23 -28 -27 -28 -27 -22 23 c-26 28 -27 35 -5 59 21 24 35 23
61 -5z m230 0 l22 -23 -25 -24 -25 -23 -25 23 -25 24 22 23 c12 13 24 23 28
23 4 0 16 -10 28 -23z m2739 1 c29 -27 29 -32 -3 -53 -25 -16 -27 -16 -50 6
l-24 23 22 23 c26 28 26 28 55 1z m241 -1 l22 -23 -28 -27 -28 -27 -24 25
c-22 23 -22 25 -6 50 20 31 36 32 64 2z m-3100 -164 l-27 -27 -26 24 -25 24
27 28 27 28 25 -25 26 -25 -27 -27z m252 22 c0 -7 -9 -20 -20 -30 -20 -18 -21
-18 -47 8 l-27 26 24 26 24 25 23 -22 c13 -12 23 -27 23 -33z m2510 3 c0 -4
-10 -18 -21 -29 l-21 -21 -26 26 -26 25 24 26 24 25 23 -22 c13 -12 23 -25 23
-30z m215 -27 l-25 -26 -27 27 -27 27 24 26 24 25 28 -27 28 -27 -25 -25z
m-3095 -116 l-24 -26 -25 25 -25 25 24 26 24 26 25 -25 25 -25 -24 -26z m240
50 l24 -26 -27 -27 -27 -27 -27 27 -27 27 24 26 c13 14 26 25 30 25 4 0 17
-11 30 -25z m2740 0 l24 -26 -25 -25 -25 -25 -23 25 c-23 24 -23 26 -7 51 21
31 27 31 56 0z m240 -35 c-20 -37 -35 -41 -60 -15 l-23 25 23 25 24 25 22 -21
c17 -16 21 -26 14 -39z m-2761 -25 c-14 -14 -18 -13 -39 10 -19 21 -21 27 -10
40 12 15 16 14 39 -9 23 -23 24 -27 10 -41z m2300 51 c9 -11 6 -20 -13 -42
-23 -28 -26 -28 -42 -12 -17 17 -17 19 6 43 27 29 33 30 49 11z m-4735 -103
c14 -118 59 -372 87 -491 34 -146 34 -142 9 -142 -26 0 -43 29 -75 125 -39
116 -64 254 -72 391 -7 137 -1 174 26 174 15 0 19 -11 25 -57z m7150 41 c11
-29 6 -199 -9 -294 -28 -170 -97 -390 -123 -390 -29 1 -30 19 -6 125 27 122
79 415 90 513 5 50 10 62 24 62 10 0 21 -7 24 -16z m-5054 -49 l23 -25 -23
-25 -24 -25 -28 27 -28 27 22 23 c27 29 29 29 58 -2z m238 2 l22 -23 -28 -27
-28 -27 -24 25 -23 25 23 25 c29 31 31 31 58 2z m2510 0 l22 -23 -28 -27 -28
-27 -23 24 c-23 24 -23 25 -5 50 24 32 35 32 62 3z m230 0 l22 -23 -25 -24
-25 -23 -25 23 -25 24 22 23 c12 13 24 23 28 23 4 0 16 -10 28 -23z m-2625
-138 c-10 -4 -33 -8 -52 -8 l-35 -1 29 30 29 30 23 -22 c22 -21 23 -23 6 -29z
m2512 -19 c-22 -24 -42 -25 -67 -3 -18 16 -18 17 9 45 l27 28 25 -24 c24 -25
24 -26 6 -46z m-2965 13 c0 -22 -20 -14 -30 13 -14 36 -13 39 10 19 11 -10 20
-24 20 -32z m217 25 c21 -20 22 -23 6 -40 -20 -22 -41 -23 -65 -1 -18 16 -18
17 4 40 26 28 26 28 55 1z m2513 -3 l23 -25 -40 0 c-47 0 -56 6 -42 31 13 26
31 24 59 -6z m415 -15 c-5 -16 -10 -19 -18 -11 -7 7 -6 15 3 26 17 20 24 13
15 -15z m-1429 -16 c43 -11 62 -20 55 -27 -13 -13 -378 -12 -411 1 -23 9 -19
11 40 25 88 21 235 21 316 1z m-1092 -143 c66 -63 129 -99 215 -125 68 -20
105 -20 121 -1 11 13 21 7 71 -40 62 -57 154 -107 229 -124 75 -17 535 -14
605 4 82 22 149 60 222 128 60 56 62 58 75 38 16 -25 46 -27 119 -5 86 26 149
62 215 125 82 79 112 81 56 3 -71 -97 -185 -166 -308 -187 -59 -10 -67 -10
-78 6 -12 15 -15 14 -42 -14 -48 -50 -132 -101 -213 -127 -71 -24 -91 -25
-320 -28 -274 -4 -350 6 -458 57 -34 16 -86 52 -116 79 -42 38 -56 46 -61 35
-7 -19 -46 -19 -121 0 -111 29 -203 91 -267 179 -56 78 -26 76 56 -3z m1316
-66 c0 -2 -24 -17 -52 -32 -51 -26 -61 -28 -233 -33 -268 -8 -368 0 -430 34
-27 15 -41 24 -30 20 83 -27 123 -30 375 -29 275 2 262 1 368 44 1 1 2 -1 2
-4z m673 -191 c-108 -127 -333 -323 -333 -290 0 10 -16 17 -54 21 -62 8 -139
-6 -195 -35 -75 -38 -165 -169 -131 -190 18 -11 4 -28 -31 -35 -21 -5 -36 -3
-45 7 -13 13 -12 21 6 62 11 26 20 51 20 56 0 4 -21 3 -47 -3 -62 -13 -444
-13 -505 0 -54 12 -56 8 -28 -47 35 -69 21 -92 -45 -70 -33 11 -35 13 -21 29
13 15 13 21 -3 57 -28 61 -76 110 -139 141 -48 22 -71 27 -141 27 -67 1 -86
-2 -94 -16 -9 -14 -17 -11 -66 29 -62 49 -312 295 -307 300 2 2 34 -19 70 -46
215 -163 509 -285 780 -326 132 -19 362 -19 491 0 279 42 536 148 765 315 52
38 96 69 98 69 2 1 -18 -24 -45 -55z m-1609 -355 c22 -6 56 -29 83 -56 l46
-45 -154 -154 c-84 -84 -154 -152 -156 -150 -1 1 13 94 32 206 19 111 35 205
35 206 0 8 77 3 114 -7z m1243 -179 c18 -102 32 -195 33 -208 0 -19 -30 6
-150 124 -82 81 -150 153 -150 159 0 18 72 83 110 99 19 9 55 15 80 13 l45 -2
32 -185z"/>
<path d="M2496 4160 c-27 -85 -32 -186 -12 -253 17 -60 36 -76 36 -31 0 39 29
92 67 122 35 29 41 42 19 42 -24 0 -75 67 -81 107 -4 21 -7 45 -9 53 -1 8 -10
-10 -20 -40z"/>
<path d="M5100 4181 c0 -51 -36 -117 -71 -133 -16 -7 -29 -15 -29 -19 0 -3 13
-15 30 -27 36 -27 62 -73 70 -127 l7 -40 17 38 c26 60 31 153 12 238 -20 90
-36 120 -36 70z"/>
<path d="M2647 3676 c-40 -36 -58 -74 -51 -102 5 -17 17 -19 132 -20 203 -1
331 -46 453 -161 67 -64 70 -65 99 -53 69 29 119 123 126 238 l5 77 -20 -35
c-25 -46 -83 -101 -108 -102 -10 -1 -59 15 -107 36 -121 52 -223 76 -345 83
-82 5 -108 10 -122 24 -10 10 -16 25 -13 34 10 25 -10 17 -49 -19z"/>
<path d="M4930 3691 c0 -34 -38 -48 -145 -54 -113 -6 -235 -38 -358 -93 l-78
-35 -32 18 c-18 11 -49 43 -69 73 -37 52 -38 52 -38 24 0 -51 21 -146 40 -184
20 -40 92 -110 113 -110 7 0 40 27 74 59 116 113 295 175 493 169 l95 -2 3 31
c2 23 -5 40 -29 67 -17 20 -40 41 -50 47 -16 8 -19 6 -19 -10z"/>
<path d="M3160 638 c0 -7 -11 -71 -25 -143 -13 -71 -23 -131 -21 -132 1 -2 39
56 84 128 l82 130 -35 15 c-42 17 -85 18 -85 2z"/>
<path d="M4357 638 c-20 -7 -26 -15 -22 -26 15 -39 150 -245 152 -232 2 8 -7
71 -20 140 l-23 125 -30 2 c-16 1 -42 -3 -57 -9z"/>
</g>
</svg>
